<?xml version="1.0" encoding="utf-8"?>
<!-- Generator: Adobe Illustrator 26.0.1, SVG Export Plug-In . SVG Version: 6.00 Build 0)  -->
<svg version="1.1" id="Layer_1" xmlns="http://www.w3.org/2000/svg" xmlns:xlink="http://www.w3.org/1999/xlink" x="0px" y="0px"
	 viewBox="0 0 300 70" style="enable-background:new 0 0 300 70;" xml:space="preserve">
<style type="text/css">
	.st0{enable-background:new    ;}
</style>
<g id="_300k_Printed_Material" transform="translate(-606.992 -1170.998)">
	<g class="st0">
		<path d="M612.8,1194.2v-8.3h29.9v7.3l-11.2,10.6c1.5,0.3,3,0.7,4.4,1.2c1.4,0.5,2.7,1.3,3.8,2.3c1.1,1,2,2.2,2.7,3.7
			c0.7,1.4,1,3.2,1,5.3c0,2.1-0.4,4-1.1,5.8c-0.7,1.8-1.8,3.3-3.2,4.6s-3.1,2.3-5,3c-2,0.7-4.2,1.1-6.6,1.1c-4,0-7.4-0.7-10.2-2.1
			c-2.8-1.4-5.1-3.3-7-5.6l6.7-6.4c1.5,1.7,3.1,3,4.8,3.9c1.7,0.9,3.6,1.4,5.9,1.4c1.8,0,3.3-0.5,4.5-1.4c1.2-1,1.7-2.3,1.7-4
			c0-1.8-0.7-3.2-2.2-4.2c-1.5-1-3.6-1.4-6.4-1.4h-4l-1.5-6.2l10.5-10.6H612.8z"/>
		<path d="M686.5,1216.9c-0.9,2.8-2.3,5.2-4,7.2c-1.7,2.1-3.8,3.7-6.2,4.9c-2.4,1.2-5.1,1.8-8,1.8c-2.9,0-5.6-0.6-8-1.7
			c-2.4-1.2-4.5-2.8-6.2-4.8c-1.7-2.1-3-4.5-3.9-7.2c-0.9-2.8-1.4-5.7-1.4-9c0-3.2,0.5-6.2,1.4-9c0.9-2.8,2.3-5.2,4-7.3
			c1.7-2.1,3.8-3.7,6.2-4.9c2.4-1.2,5.1-1.8,8-1.8c2.9,0,5.6,0.6,8,1.7c2.4,1.2,4.5,2.8,6.2,4.8c1.7,2.1,3,4.5,3.9,7.2
			c0.9,2.8,1.4,5.8,1.4,8.9C687.9,1211.1,687.5,1214.1,686.5,1216.9z M677.3,1202.4c-0.5-1.7-1.1-3.2-2-4.5c-0.8-1.3-1.9-2.2-3.1-3
			c-1.2-0.7-2.5-1.1-4-1.1c-1.5,0-2.8,0.3-4,1c-1.2,0.7-2.2,1.7-3,2.9c-0.8,1.2-1.5,2.7-1.9,4.4c-0.4,1.7-0.7,3.6-0.7,5.6
			c0,2,0.2,3.9,0.7,5.6c0.5,1.7,1.1,3.2,2,4.5c0.8,1.3,1.9,2.2,3.1,3c1.2,0.7,2.5,1.1,4,1.1c1.5,0,2.8-0.3,4-1
			c1.2-0.7,2.2-1.7,3-2.9c0.8-1.3,1.5-2.7,1.9-4.4c0.4-1.7,0.7-3.6,0.7-5.6C678,1206,677.8,1204.1,677.3,1202.4z"/>
		<path d="M730.9,1216.9c-0.9,2.8-2.3,5.2-4,7.2c-1.7,2.1-3.8,3.7-6.2,4.9c-2.4,1.2-5.1,1.8-8,1.8c-2.9,0-5.6-0.6-8-1.7
			c-2.4-1.2-4.5-2.8-6.2-4.8c-1.7-2.1-3-4.5-3.9-7.2c-0.9-2.8-1.4-5.7-1.4-9c0-3.2,0.5-6.2,1.4-9c0.9-2.8,2.3-5.2,4-7.3
			c1.7-2.1,3.8-3.7,6.2-4.9c2.4-1.2,5.1-1.8,8-1.8c2.9,0,5.6,0.6,8,1.7c2.4,1.2,4.5,2.8,6.2,4.8c1.7,2.1,3,4.5,3.9,7.2
			c0.9,2.8,1.4,5.8,1.4,8.9C732.4,1211.1,731.9,1214.1,730.9,1216.9z M721.7,1202.4c-0.5-1.7-1.1-3.2-2-4.5c-0.8-1.3-1.9-2.2-3.1-3
			c-1.2-0.7-2.5-1.1-4-1.1c-1.5,0-2.8,0.3-4,1c-1.2,0.7-2.2,1.7-3,2.9c-0.8,1.2-1.5,2.7-1.9,4.4c-0.4,1.7-0.7,3.6-0.7,5.6
			c0,2,0.2,3.9,0.7,5.6c0.5,1.7,1.1,3.2,2,4.5c0.8,1.3,1.9,2.2,3.1,3c1.2,0.7,2.5,1.1,4,1.1c1.5,0,2.8-0.3,4-1
			c1.2-0.7,2.2-1.7,3-2.9c0.8-1.3,1.5-2.7,1.9-4.4c0.4-1.7,0.7-3.6,0.7-5.6C722.4,1206,722.2,1204.1,721.7,1202.4z"/>
		<path d="M760.2,1230l-8.8-13.8l-3.3,3.5v10.3h-9.6v-46h9.6v24.5l11.2-12.3h11.5l-12.9,13.3l13.3,20.5H760.2z"/>
	</g>
	<g class="st0">
		<path d="M784.8,1196h6.4v8.1h8.1v6.3h-8.1v8.1h-6.4v-8.1h-8.1v-6.3h8.1V1196z"/>
	</g>
	<g class="st0">
		<path d="M823,1192.6c-0.4,0.7-0.9,1.3-1.5,1.8s-1.4,0.8-2.2,1.1c-0.8,0.2-1.7,0.4-2.6,0.4h-4.2v6.2h-2v-17.5h6.6
			c1,0,1.9,0.1,2.7,0.4c0.8,0.3,1.5,0.6,2.1,1.1c0.6,0.5,1,1.1,1.3,1.8c0.3,0.7,0.5,1.5,0.5,2.3C823.6,1191,823.4,1191.9,823,1192.6
			z M820.3,1187.3c-0.9-0.6-2-1-3.4-1h-4.4v7.7h4.3c0.7,0,1.4-0.1,2-0.3c0.6-0.2,1.1-0.4,1.5-0.8c0.4-0.3,0.8-0.8,1-1.2
			c0.2-0.5,0.3-1,0.3-1.6C821.6,1188.9,821.2,1187.9,820.3,1187.3z"/>
		<path d="M828.8,1202h-1.9v-12.9h1.9v3.4c0.2-0.5,0.5-1,0.9-1.5c0.3-0.4,0.8-0.8,1.2-1.2c0.5-0.3,0.9-0.6,1.5-0.7
			c0.5-0.2,1.1-0.2,1.7-0.2v2.1h-0.2c-0.7,0-1.4,0.1-2,0.4s-1.2,0.6-1.6,1.1s-0.8,1.1-1.1,1.9c-0.3,0.7-0.4,1.6-0.4,2.6V1202z"/>
		<path d="M837,1186.2v-2.1h2.2v2.1H837z M837.1,1202v-12.9h1.9v12.9H837.1z"/>
		<path d="M845.5,1202h-1.9v-12.9h1.9v2.2c0.4-0.7,1-1.3,1.7-1.8c0.7-0.5,1.6-0.7,2.7-0.7c0.8,0,1.5,0.1,2.1,0.4
			c0.6,0.2,1.1,0.6,1.6,1.1c0.4,0.5,0.8,1,1,1.6c0.2,0.6,0.3,1.3,0.3,2.1v8h-1.9v-7.5c0-1.2-0.3-2.2-0.9-2.9c-0.6-0.7-1.5-1-2.7-1
			c-0.6,0-1.1,0.1-1.5,0.3c-0.5,0.2-0.9,0.5-1.2,0.8c-0.3,0.4-0.6,0.8-0.8,1.3s-0.3,1-0.3,1.6V1202z"/>
		<path d="M861.5,1198.3c0,0.8,0.2,1.4,0.6,1.7s0.9,0.5,1.6,0.5c0.3,0,0.6,0,0.9-0.1c0.3-0.1,0.6-0.2,0.9-0.3v1.6
			c-0.3,0.2-0.7,0.3-1.1,0.4c-0.4,0.1-0.8,0.1-1.3,0.1c-0.5,0-1-0.1-1.5-0.2c-0.4-0.1-0.8-0.3-1.2-0.6c-0.3-0.3-0.6-0.7-0.8-1.1
			c-0.2-0.5-0.3-1-0.3-1.7v-7.8h-1.8v-1.7h1.8v-3.9h1.9v3.9h4.1v1.7h-4.1V1198.3z"/>
		<path d="M870.3,1198.1c0.3,0.5,0.6,1,1,1.4c0.4,0.4,0.9,0.7,1.4,0.9s1.1,0.3,1.6,0.3c0.9,0,1.7-0.2,2.3-0.5
			c0.6-0.3,1.2-0.8,1.8-1.3l1.2,1.1c-0.6,0.7-1.4,1.3-2.2,1.8s-1.9,0.7-3.1,0.7c-0.9,0-1.7-0.2-2.5-0.5s-1.5-0.8-2.1-1.4
			c-0.6-0.6-1.1-1.3-1.4-2.1c-0.3-0.8-0.5-1.8-0.5-2.8c0-0.9,0.2-1.8,0.5-2.6c0.3-0.8,0.7-1.5,1.3-2.1c0.5-0.6,1.2-1.1,2-1.4
			c0.8-0.4,1.6-0.5,2.5-0.5c1,0,1.8,0.2,2.6,0.5s1.4,0.8,1.9,1.5c0.5,0.6,0.9,1.3,1.2,2.2c0.3,0.8,0.4,1.7,0.4,2.7
			c0,0.1,0,0.2,0,0.3c0,0.1,0,0.2,0,0.3h-10.2C869.9,1196.9,870.1,1197.6,870.3,1198.1z M878.1,1194.8c-0.1-0.6-0.2-1.1-0.4-1.7
			c-0.2-0.5-0.5-1-0.8-1.4s-0.8-0.7-1.2-1c-0.5-0.2-1.1-0.4-1.7-0.4c-0.6,0-1.1,0.1-1.6,0.3c-0.5,0.2-0.9,0.5-1.3,0.9
			c-0.4,0.4-0.7,0.9-0.9,1.4s-0.4,1.1-0.4,1.8H878.1z"/>
		<path d="M893.8,1202v-2.6c-0.3,0.4-0.6,0.8-0.9,1.1s-0.7,0.7-1.1,0.9c-0.4,0.3-0.8,0.5-1.3,0.6c-0.5,0.2-1,0.2-1.6,0.2
			c-0.8,0-1.5-0.2-2.3-0.5s-1.4-0.7-2-1.3c-0.6-0.6-1-1.3-1.4-2.1c-0.3-0.8-0.5-1.8-0.5-2.9c0-1.1,0.2-2,0.5-2.8
			c0.4-0.8,0.8-1.5,1.4-2.1c0.6-0.6,1.2-1,2-1.3s1.5-0.5,2.3-0.5c0.6,0,1.1,0.1,1.6,0.2c0.5,0.1,1,0.3,1.4,0.6
			c0.4,0.2,0.8,0.5,1.1,0.9c0.3,0.3,0.6,0.7,0.9,1v-7.8h1.9v18.2H893.8z M893.5,1193.5c-0.3-0.6-0.6-1.1-1.1-1.6
			c-0.4-0.4-0.9-0.8-1.5-1c-0.6-0.2-1.1-0.4-1.7-0.4c-0.6,0-1.2,0.1-1.8,0.3c-0.6,0.2-1,0.5-1.4,1c-0.4,0.4-0.7,0.9-1,1.6
			s-0.4,1.3-0.4,2.1c0,0.8,0.1,1.5,0.4,2.1s0.6,1.1,1,1.6c0.4,0.4,0.9,0.8,1.5,1c0.5,0.2,1.1,0.3,1.8,0.3c0.6,0,1.2-0.1,1.7-0.4
			c0.6-0.2,1.1-0.6,1.5-1c0.4-0.4,0.8-1,1.1-1.6c0.3-0.6,0.4-1.3,0.4-2.1S893.8,1194.1,893.5,1193.5z"/>
	</g>
	<g class="st0">
		<path d="M818.9,1224.2L818.9,1224.2l-6.5-9.4v14.2h-1.9v-17.5h2l6.4,9.5l6.4-9.5h2v17.5h-2v-14.2L818.9,1224.2z"/>
		<path d="M834.4,1217.9c-0.6,0.2-1.2,0.4-1.8,0.7l-0.6-1.6c0.7-0.3,1.4-0.6,2.2-0.8c0.7-0.2,1.6-0.3,2.5-0.3c1.8,0,3.1,0.4,4.1,1.3
			s1.4,2.2,1.4,3.9v7.9h-1.8v-2c-0.5,0.6-1.1,1.1-1.8,1.5c-0.8,0.5-1.7,0.7-2.9,0.7c-0.6,0-1.2-0.1-1.8-0.2
			c-0.6-0.2-1.1-0.4-1.6-0.8c-0.5-0.3-0.8-0.8-1.1-1.3s-0.4-1.1-0.4-1.8c0-0.7,0.1-1.3,0.4-1.8c0.3-0.5,0.6-1,1.1-1.3
			c0.5-0.3,1.1-0.6,1.8-0.8c0.7-0.2,1.4-0.3,2.2-0.3c0.8,0,1.6,0,2.2,0.1c0.6,0.1,1.2,0.2,1.8,0.4v-0.5c0-1.2-0.3-2-1-2.6
			c-0.7-0.6-1.6-0.9-2.8-0.9C835.7,1217.6,835.1,1217.7,834.4,1217.9z M833.8,1223.2c-0.6,0.5-1,1.1-1,2c0,0.4,0.1,0.8,0.3,1.1
			s0.4,0.6,0.7,0.8c0.3,0.2,0.6,0.4,1,0.5s0.8,0.2,1.2,0.2c0.6,0,1.2-0.1,1.7-0.3s1-0.4,1.4-0.7c0.4-0.3,0.7-0.7,0.9-1.1
			c0.2-0.4,0.3-0.9,0.3-1.4v-1.2c-0.5-0.1-1-0.3-1.7-0.4c-0.6-0.1-1.3-0.2-2.1-0.2C835.4,1222.4,834.5,1222.7,833.8,1223.2z"/>
		<path d="M848.8,1225.3c0,0.8,0.2,1.4,0.6,1.7c0.4,0.3,0.9,0.5,1.6,0.5c0.3,0,0.6,0,0.9-0.1s0.6-0.2,0.9-0.3v1.6
			c-0.3,0.2-0.7,0.3-1.1,0.4c-0.4,0.1-0.8,0.1-1.3,0.1c-0.5,0-1-0.1-1.5-0.2c-0.4-0.1-0.8-0.3-1.2-0.6c-0.3-0.3-0.6-0.7-0.8-1.1
			c-0.2-0.5-0.3-1-0.3-1.7v-7.8h-1.8v-1.7h1.8v-3.9h1.9v3.9h4.1v1.7h-4.1V1225.3z"/>
		<path d="M857.6,1225.1c0.3,0.5,0.6,1,1,1.4c0.4,0.4,0.9,0.7,1.4,0.9c0.5,0.2,1.1,0.3,1.6,0.3c0.9,0,1.7-0.2,2.3-0.5
			c0.6-0.3,1.2-0.8,1.8-1.3l1.2,1.1c-0.6,0.7-1.4,1.3-2.2,1.8c-0.8,0.4-1.9,0.7-3.1,0.7c-0.9,0-1.7-0.2-2.5-0.5s-1.5-0.8-2.1-1.4
			s-1.1-1.3-1.4-2.1c-0.3-0.8-0.5-1.8-0.5-2.8c0-0.9,0.2-1.8,0.5-2.6c0.3-0.8,0.7-1.5,1.3-2.1c0.5-0.6,1.2-1.1,2-1.4
			c0.8-0.4,1.6-0.5,2.5-0.5c1,0,1.8,0.2,2.6,0.5s1.4,0.8,1.9,1.5c0.5,0.6,0.9,1.3,1.2,2.2c0.3,0.8,0.4,1.7,0.4,2.7
			c0,0.1,0,0.2,0,0.3c0,0.1,0,0.2,0,0.3h-10.2C857.2,1223.9,857.3,1224.6,857.6,1225.1z M865.4,1221.8c-0.1-0.6-0.2-1.1-0.4-1.7
			c-0.2-0.5-0.5-1-0.8-1.4s-0.8-0.7-1.2-1c-0.5-0.2-1.1-0.4-1.7-0.4c-0.6,0-1.1,0.1-1.6,0.3c-0.5,0.2-0.9,0.5-1.3,0.9
			c-0.4,0.4-0.7,0.9-0.9,1.4s-0.4,1.1-0.4,1.8H865.4z"/>
		<path d="M872.6,1229h-1.9v-12.9h1.9v3.4c0.2-0.5,0.5-1,0.9-1.5c0.3-0.4,0.8-0.8,1.2-1.2c0.5-0.3,0.9-0.6,1.5-0.7s1.1-0.2,1.7-0.2
			v2.1h-0.1c-0.7,0-1.4,0.1-2,0.4s-1.2,0.6-1.6,1.1c-0.5,0.5-0.8,1.1-1.1,1.9c-0.3,0.7-0.4,1.6-0.4,2.6V1229z"/>
		<path d="M880.9,1213.2v-2.1h2.2v2.1H880.9z M881,1229v-12.9h1.9v12.9H881z"/>
		<path d="M890,1217.9c-0.6,0.2-1.2,0.4-1.8,0.7l-0.6-1.6c0.7-0.3,1.4-0.6,2.2-0.8s1.6-0.3,2.5-0.3c1.8,0,3.1,0.4,4.1,1.3
			c0.9,0.9,1.4,2.2,1.4,3.9v7.9h-1.8v-2c-0.4,0.6-1.1,1.1-1.8,1.5c-0.8,0.5-1.7,0.7-2.9,0.7c-0.6,0-1.2-0.1-1.8-0.2
			c-0.6-0.2-1.1-0.4-1.5-0.8s-0.8-0.8-1.1-1.3c-0.3-0.5-0.4-1.1-0.4-1.8c0-0.7,0.1-1.3,0.4-1.8c0.3-0.5,0.6-1,1.1-1.3
			c0.5-0.3,1.1-0.6,1.8-0.8c0.7-0.2,1.4-0.3,2.2-0.3c0.8,0,1.6,0,2.2,0.1c0.6,0.1,1.2,0.2,1.8,0.4v-0.5c0-1.2-0.3-2-1-2.6
			c-0.7-0.6-1.6-0.9-2.8-0.9C891.3,1217.6,890.6,1217.7,890,1217.9z M889.4,1223.2c-0.6,0.5-1,1.1-1,2c0,0.4,0.1,0.8,0.3,1.1
			c0.2,0.3,0.4,0.6,0.7,0.8s0.6,0.4,1,0.5s0.8,0.2,1.2,0.2c0.6,0,1.2-0.1,1.7-0.3s1-0.4,1.4-0.7c0.4-0.3,0.7-0.7,0.9-1.1
			c0.2-0.4,0.3-0.9,0.3-1.4v-1.2c-0.5-0.1-1-0.3-1.7-0.4c-0.6-0.1-1.3-0.2-2.1-0.2C891,1222.4,890,1222.7,889.4,1223.2z"/>
		<path d="M902.1,1229v-18.2h1.9v18.2H902.1z"/>
	</g>
</g>
</svg>
