<svg id="PrintPact_Logo" data-name="PrintPact Logo" xmlns="http://www.w3.org/2000/svg" width="54" height="51.29" viewBox="0 0 54 51.29">
  <g id="Layer_1" data-name="Layer 1" transform="translate(0 0)">
    <path id="Path_2693" data-name="Path 2693" d="M48.926,0H5.074A5.073,5.073,0,0,0,0,5.075V46.216A5.073,5.073,0,0,0,5.075,51.29h16.4V45.451H7.4a1.564,1.564,0,0,1-1.563-1.563V7.4A1.564,1.564,0,0,1,7.4,5.839H46.6A1.564,1.564,0,0,1,48.162,7.4V43.888A1.563,1.563,0,0,1,46.6,45.452H31.483V42.325h4.343A7.123,7.123,0,0,0,42.949,35.2v-.973A7.123,7.123,0,0,0,35.825,27.1H27.208a1.564,1.564,0,0,0-1.563,1.564v7.819H18.868a1.564,1.564,0,0,1-1.563-1.564V24.6h4.726a6.742,6.742,0,0,0,6.741-6.74V16.12a6.742,6.742,0,0,0-6.741-6.742h-9a1.564,1.564,0,0,0-1.558,1.568V40.76a1.564,1.564,0,0,0,1.563,1.564h12.61V51.29H48.926A5.073,5.073,0,0,0,54,46.215V5.074A5.073,5.073,0,0,0,48.925,0ZM31.483,32.943h4.062a1.563,1.563,0,0,1,1.563,1.563v.417a1.564,1.564,0,0,1-1.563,1.564H31.483ZM17.305,15.222h4.066a1.564,1.564,0,0,1,1.564,1.563V17.2a1.564,1.564,0,0,1-1.564,1.564H17.305Z" transform="translate(0 0)" fill="#fdff03"/>
  </g>
</svg>
